<?xml version="1.0" encoding="UTF-8"?>
<svg width="64" height="64" viewBox="0 0 64 64" xmlns="http://www.w3.org/2000/svg">
  <!-- Building -->
  <rect x="12" y="16" width="40" height="44" rx="2" fill="#3b82f6"/>
  
  <!-- Windows -->
  <rect x="18" y="22" width="8" height="6" rx="1" fill="#fff"/>
  <rect x="38" y="22" width="8" height="6" rx="1" fill="#fff"/>
  <rect x="18" y="32" width="8" height="6" rx="1" fill="#fff"/>
  <rect x="38" y="32" width="8" height="6" rx="1" fill="#fff"/>
  <rect x="18" y="42" width="8" height="6" rx="1" fill="#fff"/>
  <rect x="38" y="42" width="8" height="6" rx="1" fill="#fff"/>
  
  <!-- Door -->
  <rect x="26" y="48" width="12" height="12" rx="1" fill="#1e40af"/>
  
  <!-- Roof accent -->
  <rect x="12" y="14" width="40" height="4" rx="1" fill="#1e40af"/>
  
  <!-- Calculator overlay circle -->
  <circle cx="48" cy="48" r="14" fill="#10b981" stroke="#fff" stroke-width="2"/>
  
  <!-- Plus sign on calculator -->
  <rect x="45" y="42" width="6" height="12" rx="1" fill="#fff"/>
  <rect x="42" y="45" width="12" height="6" rx="1" fill="#fff"/>
</svg>
